# xmcd
# Copyright (C) 1995-1998 Ti Kan
#
# Track frame offsets:
#       150
#       15750
#       29600
#       44649
#       56753
#       74527
#       91518
#       107846
#       119551
#       135954
#       156028
#
# Disc length: 2260 seconds
#
# Revision: 0
# Processed by: cddbd v1.5.2PL0 Copyright (c) Steve Scherf et al.
# Submitted via: CD-Import v1.0
#
DISCID=8c08d20b
DTITLE=Enemy - We'll Live And Die In This Town
DYEAR=2007
DGENRE=
TTITLE0=Aggro
TTITLE1=Away From Here
TTITLE2=Pressure
TTITLE3=Had Enough
TTITLE4=We'll Live and Die In These Towns
TTITLE5=You're Not Alone
TTITLE6=It's Not Ok
TTITLE7=Technodanceaphobic
TTITLE8=40 Days and 40 Nights
TTITLE9=This Song
TTITLE10=Happy Birthday Jane
EXTD=
EXTT0=
EXTT1=
EXTT2=
EXTT3=
EXTT4=
EXTT5=
EXTT6=
EXTT7=
EXTT8=
EXTT9=
EXTT10=
PLAYORDER=
